# xmcd CD database file
#
# Track frame offsets:
#	150
#	26407
#	47908
#	71917
#	100464
#	120331
#	140208
#	162303
#	179795
#	202693
#
# Disc length: 2962 seconds
#
# Revision: 0
# Processed by: cddbd v1.5.2PL0 Copyright (c) Steve Scherf et al.
# Submitted via: CDex 1.51
#
DISCID=930b900a
DTITLE=Rio de Janeiro Jazz Trio - Life is a Rhythm
DYEAR=2004
DGENRE=Jazz
TTITLE0=Pernambuco Nation
TTITLE1=Funk Jones
TTITLE2=Tomato Salsa
TTITLE3=Simplish Cancao
TTITLE4=Lua Nova
TTITLE5=Boa Viagem
TTITLE6=Happy Blues
TTITLE7=Life is a Rhythm
TTITLE8=Reggae Baiana
TTITLE9=Lua Crescente
EXTD=YEAR: 2004
EXTT0=
EXTT1=
EXTT2=
EXTT3=
EXTT4=
EXTT5=
EXTT6=
EXTT7=
EXTT8=
EXTT9=
PLAYORDER=
